<svg xmlns="http://www.w3.org/2000/svg" xml:space="preserve" width="2048" height="2048" style="shape-rendering:geometricPrecision;text-rendering:geometricPrecision;image-rendering:optimizeQuality;fill-rule:evenodd;clip-rule:evenodd"><defs><style>.fil0,.fil1{fill:#ffffff}.fil0{fill-rule:nonzero}</style></defs><g id="Layer_x0020_1"><g id="_247740144"><path id="_247741200" class="fil0" d="m861.527 1265.75 638.476-226.009-.019-.053c14.613-5.172 30.476.906 38.134 13.718L1786 1402.692l-26 18.5 26.097-18.52c10.228 14.412 6.835 34.39-7.576 44.616a31.933 31.933 0 0 1-10.404 4.863l-677.586 237.155.032.092c-15.473 5.414-32.3-1.757-39.315-16.14l-208.551-360.735 27.625-16-27.704 16.016c-8.844-15.3-3.612-34.876 11.688-43.72a32.088 32.088 0 0 1 7.222-3.07zm560.41 149.586c8.836 15.256 28.369 20.46 43.625 11.624 15.256-8.835 20.46-28.369 11.625-43.625l-84.42-146.022c-8.837-15.256-28.37-20.46-43.626-11.624-15.256 8.836-20.46 28.369-11.625 43.625l84.421 146.022zm-176.143 76.403c8.836 15.256 28.369 20.46 43.625 11.625 15.256-8.836 20.46-28.37 11.625-43.626l-92.664-160.279c-8.836-15.256-28.369-20.46-43.625-11.624s-20.46 28.369-11.625 43.625l92.664 160.28z"/><path id="_247741440" class="fil0" d="M852.819 1691.19h-564.82c-17.673 0-32-14.328-32-32 0-59.532 24.331-113.63 63.53-152.83 39.198-39.198 93.296-63.53 152.828-63.53h196.106c59.53 0 113.629 24.332 152.828 63.53 39.198 39.2 63.53 93.298 63.53 152.83 0 17.672-14.328 32-32 32z"/><path id="_247740096" class="fil1" d="m436.581 896.881-3.195-1.442c-10.402-4.693-21.983-5.52-32.944-2.343-25.335 7.339-40.062 34.024-32.654 59.358l156.64 535.743c7.392 25.285 33.986 39.965 59.309 32.628 25.334-7.34 40.062-34.024 32.654-59.358L459.75 925.724c-3.27-11.184-10.4-20.689-20.22-26.96l-2.95-1.883zm14.948-27.624 3.19 1.438c8.791 3.965 18.454 5.15 27.947 3.46L907.83 798.44c26.046-4.638 43.51-29.417 38.957-55.505-4.556-26.095-29.46-43.649-55.568-39l-425.163 75.713c-26.045 4.639-43.51 29.416-38.956 55.505 2.328 13.333 10.08 24.938 21.48 32.218l2.95 1.885z"/><path id="_247740192" class="fil1" d="m900.075 657.847.083.116-.32.554c-39.042 67.623-49.972 147.494-29.73 222.993l.647 2.414c.142.527.244 1.064.384 1.59 4.32 16.147 20.842 25.944 37.002 22.164l-.007-.025 512.198-137.242c.535-.143 1.08-.245 1.613-.388 16.145-4.329 25.945-20.849 22.159-37.012l-.026.007-1.315-4.905c-20.256-75.598-69.664-139.273-137.366-178.36-67.624-39.042-147.493-49.956-222.993-29.73l-4.206 1.127c-75.231 20.154-135.856 70.08-177.18 135.22-.312.493-.635.98-.943 1.476z"/><path id="_247740432" class="fil0" d="M1246.56 534.521c-15.216-56.511-44.473-104.199-79.378-135.53-83.562-75.005-188.108-46.912-222.95 59.747-14.447 44.225-16.039 99.577-1.373 155.6.1.486.215.966.338 1.442 36.312-38.7 83.406-68.084 138.182-82.76l4.206-1.127c54.723-14.663 110.177-12.747 160.975 2.629z"/><path id="_247740360" class="fil0" d="M1030.69 907.945c13.056 16.463 30.915 29.393 51.804 38.046 32.36 13.402 72.373 16.382 112.22 5.706l.318-.087a31.299 31.299 0 0 0 3.578-.97c39.057-10.896 71.558-33.25 92.583-60.648 13.73-17.891 22.7-37.978 25.754-58.748l-286.257 76.7z"/><path id="_247740480" class="fil1" d="M413.068 746.097c-31.954 0-62.36 12.598-84.954 35.191-22.594 22.595-35.191 53-35.191 84.954 0 31.953 12.598 62.362 35.19 84.955 22.595 22.593 53.001 35.19 84.955 35.19 31.952 0 62.361-12.598 84.954-35.19 22.593-22.594 35.191-53.002 35.191-84.955 0-31.953-12.597-62.36-35.19-84.954-22.594-22.592-53.003-35.191-84.955-35.191z"/></g></g><path style="fill:none" d="M0 0h2048v2048H0z"/></svg>